<?xml version="1.0"?>
<svg width="100" height="100" xmlns="http://www.w3.org/2000/svg" xmlns:svg="http://www.w3.org/2000/svg">
 <!-- Created with SVG-edit - https://github.com/SVG-Edit/svgedit-->
 <g class="layer">
  <title>Layer 1</title>
  <path stroke="#000000" fill="#ff0000" stroke-width="5" stroke-dasharray="null" stroke-linejoin="null" stroke-linecap="null" stroke-opacity="0" d="m98.101926,86.179577l-13.056373,-20.831606c-3.936264,-6.279416 -10.374602,-16.558299 -14.310854,-22.837715l-13.056373,-20.831606c-3.939721,-6.282601 -10.378059,-6.282601 -14.314323,0l-13.052916,20.831606c-3.936264,6.279416 -10.378059,16.561484 -14.314323,22.837715l-13.052916,20.831606c-3.936264,6.285786 -0.715367,11.422042 7.157161,11.422042l80.83684,0c7.879454,0 11.096882,-5.136256 7.164075,-11.422042zm-43.851858,3.225686l-7.744657,0l0,-6.849403l7.744657,0l0,6.849403zm-0.373232,-11.896503l-6.991279,0l-0.694639,-29.308173l8.31835,0l-0.632432,29.308173z" id="svg_9"/>
 </g>
</svg>